<svg width="12" height="14" viewBox="0 0 12 14" fill="none" xmlns="http://www.w3.org/2000/svg">
<path d="M12 4.95998C11.9931 4.89874 11.9796 4.8384 11.96 4.77998V4.71998C11.9279 4.65143 11.8852 4.58842 11.8333 4.53331L7.83333 0.533313C7.77822 0.481457 7.71521 0.4387 7.64667 0.406646C7.62677 0.40382 7.60657 0.40382 7.58667 0.406646C7.51894 0.367807 7.44415 0.342876 7.36667 0.333313H4.66667C4.13623 0.333313 3.62753 0.544027 3.25245 0.919099C2.87738 1.29417 2.66667 1.80288 2.66667 2.33331V2.99998H2C1.46957 2.99998 0.960859 3.21069 0.585787 3.58577C0.210714 3.96084 0 4.46955 0 4.99998V11.6666C0 12.1971 0.210714 12.7058 0.585787 13.0809C0.960859 13.4559 1.46957 13.6666 2 13.6666H7.33333C7.86377 13.6666 8.37247 13.4559 8.74755 13.0809C9.12262 12.7058 9.33333 12.1971 9.33333 11.6666V11H10C10.5304 11 11.0391 10.7893 11.4142 10.4142C11.7893 10.0391 12 9.53041 12 8.99998V4.99998C12 4.99998 12 4.99998 12 4.95998ZM8 2.60665L9.72667 4.33331H8.66667C8.48986 4.33331 8.32029 4.26307 8.19526 4.13805C8.07024 4.01303 8 3.84346 8 3.66665V2.60665ZM8 11.6666C8 11.8435 7.92976 12.013 7.80474 12.1381C7.67971 12.2631 7.51014 12.3333 7.33333 12.3333H2C1.82319 12.3333 1.65362 12.2631 1.5286 12.1381C1.40357 12.013 1.33333 11.8435 1.33333 11.6666V4.99998C1.33333 4.82317 1.40357 4.6536 1.5286 4.52857C1.65362 4.40355 1.82319 4.33331 2 4.33331H2.66667V8.99998C2.66667 9.53041 2.87738 10.0391 3.25245 10.4142C3.62753 10.7893 4.13623 11 4.66667 11H8V11.6666ZM10.6667 8.99998C10.6667 9.17679 10.5964 9.34636 10.4714 9.47138C10.3464 9.59641 10.1768 9.66665 10 9.66665H4.66667C4.48986 9.66665 4.32029 9.59641 4.19526 9.47138C4.07024 9.34636 4 9.17679 4 8.99998V2.33331C4 2.1565 4.07024 1.98693 4.19526 1.86191C4.32029 1.73688 4.48986 1.66665 4.66667 1.66665H6.66667V3.66665C6.66667 4.19708 6.87738 4.70579 7.25245 5.08086C7.62753 5.45593 8.13623 5.66665 8.66667 5.66665H10.6667V8.99998Z" fill="#929496"/>
</svg>
