<svg width="14" height="14" viewBox="0 0 14 14" fill="none" xmlns="http://www.w3.org/2000/svg">
<path d="M12.2734 9.34004H9.25337C9.07656 9.34004 8.90699 9.41028 8.78197 9.5353C8.65695 9.66033 8.58671 9.8299 8.58671 10.0067C8.58671 10.1835 8.65695 10.3531 8.78197 10.4781C8.90699 10.6031 9.07656 10.6734 9.25337 10.6734H10.8534C10.118 11.4419 9.16964 11.9729 8.13015 12.1983C7.09066 12.4237 6.00751 12.3331 5.01989 11.9382C4.03227 11.5433 3.18529 10.8621 2.58777 9.98215C1.99025 9.1022 1.66949 8.06368 1.66671 7.00004C1.66671 6.82323 1.59647 6.65366 1.47145 6.52864C1.34642 6.40361 1.17685 6.33337 1.00004 6.33337C0.82323 6.33337 0.65366 6.40361 0.528636 6.52864C0.403612 6.65366 0.333374 6.82323 0.333374 7.00004C0.336898 8.30191 0.721521 9.57425 1.43978 10.6601C2.15803 11.7459 3.17848 12.5976 4.3752 13.1102C5.57192 13.6228 6.89253 13.7737 8.17405 13.5445C9.45558 13.3152 10.6419 12.7157 11.5867 11.82V13C11.5867 13.1769 11.6569 13.3464 11.782 13.4714C11.907 13.5965 12.0766 13.6667 12.2534 13.6667C12.4302 13.6667 12.5998 13.5965 12.7248 13.4714C12.8498 13.3464 12.92 13.1769 12.92 13V10C12.9184 9.8278 12.8501 9.66287 12.7296 9.53984C12.609 9.4168 12.4455 9.3452 12.2734 9.34004ZM7.00004 0.333374C5.29096 0.338249 3.64903 0.999317 2.41337 2.18004V1.00004C2.41337 0.82323 2.34314 0.65366 2.21811 0.528636C2.09309 0.403612 1.92352 0.333374 1.74671 0.333374C1.5699 0.333374 1.40033 0.403612 1.2753 0.528636C1.15028 0.65366 1.08004 0.82323 1.08004 1.00004V4.00004C1.08004 4.17685 1.15028 4.34642 1.2753 4.47144C1.40033 4.59647 1.5699 4.66671 1.74671 4.66671H4.74671C4.92352 4.66671 5.09309 4.59647 5.21811 4.47144C5.34314 4.34642 5.41337 4.17685 5.41337 4.00004C5.41337 3.82323 5.34314 3.65366 5.21811 3.52864C5.09309 3.40361 4.92352 3.33337 4.74671 3.33337H3.14671C3.88168 2.56529 4.82943 2.03437 5.86831 1.80878C6.90718 1.58318 7.98977 1.6732 8.97711 2.06728C9.96446 2.46136 10.8115 3.14152 11.4095 4.02044C12.0076 4.89937 12.3293 5.93696 12.3334 7.00004C12.3334 7.17685 12.4036 7.34642 12.5286 7.47144C12.6537 7.59647 12.8232 7.66671 13 7.66671C13.1769 7.66671 13.3464 7.59647 13.4714 7.47144C13.5965 7.34642 13.6667 7.17685 13.6667 7.00004C13.6667 6.12456 13.4943 5.25765 13.1592 4.44882C12.8242 3.63998 12.3331 2.90505 11.7141 2.286C11.095 1.66694 10.3601 1.17588 9.55126 0.840844C8.74243 0.505812 7.87552 0.333374 7.00004 0.333374Z" fill="#F9A500"/>
</svg>
