<svg width="8" height="8" viewBox="0 0 8 8" fill="none" xmlns="http://www.w3.org/2000/svg">
    <path d="M4.93996 4.00004L7.80662 1.14004C7.93216 1.01451 8.00269 0.844243 8.00269 0.666709C8.00269 0.489175 7.93216 0.318911 7.80662 0.193376C7.68109 0.0678398 7.51083 -0.00268555 7.33329 -0.00268555C7.15576 -0.00268555 6.9855 0.0678398 6.85996 0.193376L3.99996 3.06004L1.13996 0.193376C1.01442 0.0678398 0.84416 -0.00268555 0.666626 -0.00268555C0.489092 -0.00268555 0.318828 0.0678398 0.193293 0.193376C0.0677568 0.318911 -0.00276852 0.489175 -0.00276852 0.666709C-0.00276852 0.844243 0.0677568 1.01451 0.193293 1.14004L3.05996 4.00004L0.193293 6.86004C0.130807 6.92202 0.081211 6.99575 0.0473652 7.07699C0.0135194 7.15823 -0.00390625 7.24537 -0.00390625 7.33338C-0.00390625 7.42138 0.0135194 7.50852 0.0473652 7.58976C0.081211 7.671 0.130807 7.74473 0.193293 7.80671C0.255268 7.86919 0.329002 7.91879 0.410241 7.95264C0.491481 7.98648 0.578618 8.00391 0.666626 8.00391C0.754634 8.00391 0.841771 7.98648 0.92301 7.95264C1.00425 7.91879 1.07798 7.86919 1.13996 7.80671L3.99996 4.94004L6.85996 7.80671C6.92193 7.86919 6.99567 7.91879 7.07691 7.95264C7.15815 7.98648 7.24528 8.00391 7.33329 8.00391C7.4213 8.00391 7.50844 7.98648 7.58968 7.95264C7.67092 7.91879 7.74465 7.86919 7.80662 7.80671C7.86911 7.74473 7.91871 7.671 7.95255 7.58976C7.9864 7.50852 8.00382 7.42138 8.00382 7.33338C8.00382 7.24537 7.9864 7.15823 7.95255 7.07699C7.91871 6.99575 7.86911 6.92202 7.80662 6.86004L4.93996 4.00004Z" fill="#791919"/>
</svg>
