<svg width="21" height="20" viewBox="0 0 21 20" fill="none" xmlns="http://www.w3.org/2000/svg">
<path d="M15.5259 13.8477L19.0948 17.4166L17.9163 18.5951L14.3474 15.0262C13.0642 16.0528 11.4367 16.667 9.66675 16.667C5.52675 16.667 2.16675 13.307 2.16675 9.16699C2.16675 5.02699 5.52675 1.66699 9.66675 1.66699C13.8067 1.66699 17.1667 5.02699 17.1667 9.16699C17.1667 10.937 16.5526 12.5644 15.5259 13.8477ZM13.854 13.2293C14.873 12.1792 15.5001 10.7467 15.5001 9.16699C15.5001 5.94408 12.8897 3.33366 9.66675 3.33366C6.44383 3.33366 3.83341 5.94408 3.83341 9.16699C3.83341 12.3899 6.44383 15.0003 9.66675 15.0003C11.2464 15.0003 12.6789 14.3732 13.7291 13.3542L13.854 13.2293Z" fill="#494949"/>
</svg>
