<svg width="12" height="14" viewBox="0 0 12 14" fill="none" xmlns="http://www.w3.org/2000/svg">
<path d="M4.66667 11C4.84348 11 5.01305 10.9297 5.13807 10.8047C5.2631 10.6797 5.33333 10.5101 5.33333 10.3333V6.33331C5.33333 6.1565 5.2631 5.98693 5.13807 5.86191C5.01305 5.73688 4.84348 5.66665 4.66667 5.66665C4.48986 5.66665 4.32029 5.73688 4.19526 5.86191C4.07024 5.98693 4 6.1565 4 6.33331V10.3333C4 10.5101 4.07024 10.6797 4.19526 10.8047C4.32029 10.9297 4.48986 11 4.66667 11ZM11.3333 2.99998H8.66667V2.33331C8.66667 1.80288 8.45595 1.29417 8.08088 0.919099C7.70581 0.544027 7.1971 0.333313 6.66667 0.333313H5.33333C4.8029 0.333313 4.29419 0.544027 3.91912 0.919099C3.54405 1.29417 3.33333 1.80288 3.33333 2.33331V2.99998H0.666667C0.489856 2.99998 0.320286 3.07022 0.195262 3.19524C0.0702379 3.32027 0 3.48984 0 3.66665C0 3.84346 0.0702379 4.01303 0.195262 4.13805C0.320286 4.26307 0.489856 4.33331 0.666667 4.33331H1.33333V11.6666C1.33333 12.1971 1.54405 12.7058 1.91912 13.0809C2.29419 13.4559 2.8029 13.6666 3.33333 13.6666H8.66667C9.1971 13.6666 9.70581 13.4559 10.0809 13.0809C10.456 12.7058 10.6667 12.1971 10.6667 11.6666V4.33331H11.3333C11.5101 4.33331 11.6797 4.26307 11.8047 4.13805C11.9298 4.01303 12 3.84346 12 3.66665C12 3.48984 11.9298 3.32027 11.8047 3.19524C11.6797 3.07022 11.5101 2.99998 11.3333 2.99998ZM4.66667 2.33331C4.66667 2.1565 4.7369 1.98693 4.86193 1.86191C4.98695 1.73688 5.15652 1.66665 5.33333 1.66665H6.66667C6.84348 1.66665 7.01305 1.73688 7.13807 1.86191C7.2631 1.98693 7.33333 2.1565 7.33333 2.33331V2.99998H4.66667V2.33331ZM9.33333 11.6666C9.33333 11.8435 9.2631 12.013 9.13807 12.1381C9.01305 12.2631 8.84348 12.3333 8.66667 12.3333H3.33333C3.15652 12.3333 2.98695 12.2631 2.86193 12.1381C2.7369 12.013 2.66667 11.8435 2.66667 11.6666V4.33331H9.33333V11.6666ZM7.33333 11C7.51014 11 7.67971 10.9297 7.80474 10.8047C7.92976 10.6797 8 10.5101 8 10.3333V6.33331C8 6.1565 7.92976 5.98693 7.80474 5.86191C7.67971 5.73688 7.51014 5.66665 7.33333 5.66665C7.15652 5.66665 6.98695 5.73688 6.86193 5.86191C6.73691 5.98693 6.66667 6.1565 6.66667 6.33331V10.3333C6.66667 10.5101 6.73691 10.6797 6.86193 10.8047C6.98695 10.9297 7.15652 11 7.33333 11Z" fill="#791919"/>
</svg>
